<svg viewBox="75 0 38 27" fill="none" xmlns="http://www.w3.org/2000/svg">
    <path d="M101.192 14.1032C101.192 11.425 107.58 10.8697 112.528 11.1204C112.528 8.97785 112.499 5.42011 112.528 2.85008C104.612 1.3808 96.4742 3.16458 93.9927 9.72478C91.5111 3.16458 83.3686 1.3808 75.457 2.85008C75.4865 5.42502 75.457 8.97785 75.457 11.1204C80.4054 10.8697 86.7936 11.425 86.7936 14.1032C86.7936 16.9385 80.0959 16.9975 75.457 16.9385C75.457 19.081 75.4865 23.0221 75.457 25.597C83.3637 26.9926 91.5013 24.8403 93.9927 18.1572C96.489 24.8403 104.622 26.9926 112.528 25.597C112.499 23.0221 112.528 19.081 112.528 16.9385C107.889 16.9975 101.192 16.9385 101.192 14.1032Z"
          fill="#3D6CED"/>
</svg>
