<svg xmlns="http://www.w3.org/2000/svg" viewBox="0 0 52.4 51.41">
    <g id="ba49fc29-63c4-4c46-afb0-3c174e66f131" data-name="Layer 2">
        <g id="addde2f1-f20b-4ec7-917b-e22609451534" data-name="Layer 1">
            <path d="M44.93,0A26,26,0,0,0,18.05,22.87c0,.23-.27.35-.52.16a22.7,22.7,0,0,0-4.8-2.94h0a3.12,3.12,0,0,0,1.85-2.15c.2-.84-.24-1.44-1.13-1.14a23.52,23.52,0,0,1-7,.89c-1.19,0-2.39,0-3.59,0-.59,0-1.18-.05-1.77,0-1.58.08-1.26,1.42-.36,1.58.74.15,1.48.33,2.2.54a23.15,23.15,0,0,1,2.57.93,25.79,25.79,0,0,1,7.14,4.45h0a27,27,0,0,1,5,6,29.81,29.81,0,0,1,1.92,4.12c.09.24.32.8.34.81A25.94,25.94,0,0,0,38.76,51.4a.66.66,0,0,0,.77-.51.65.65,0,0,0-.36-.72A25.94,25.94,0,0,1,45,1.32a.66.66,0,0,0,.52-.77A.67.67,0,0,0,44.93,0"
                  style="fill:#ff5a23"></path>
            <path d="M43.29,9.05a15.71,15.71,0,0,1,8.91,2.5.44.44,0,0,1,.13.62.37.37,0,0,1-.12.13h0a.4.4,0,0,1-.33.07A19.87,19.87,0,0,0,49,12a19.38,19.38,0,0,0-19.84,16,.44.44,0,0,1-.19.29.45.45,0,0,1-.62-.11.33.33,0,0,1-.07-.16A15.76,15.76,0,0,1,40.4,9.39a16.52,16.52,0,0,1,2.89-.34"
                  style="fill:#232873"></path>
        </g>
    </g>
</svg>
