<svg viewBox="80 0 50 45" fill="none" xmlns="http://www.w3.org/2000/svg">
    <g id="logo">
        <path id="Vector_5"
              d="M110.788 6.91707C116.246 10.9882 115.07 17.9275 110.788 22.1602C110.659 20.9277 110.238 19.7437 109.56 18.7064C108.882 17.6691 107.966 16.8083 106.889 16.1955C102.991 13.8731 95.0546 14.1349 89.1233 20.4894C87.731 21.982 86.5948 24.3378 85.7372 25.9807C83.4036 20.623 85.1023 14.7586 89.9809 9.52906C96.1962 2.83479 105.074 2.67885 110.788 6.91707Z"
              fill="#0082E0"/>
        <path id="Vector_6"
              d="M115.367 32.0724C109.112 34.7624 100.692 29.0594 101.315 22.2371C103.12 24.5762 106.617 25.5786 109.296 24.0304C113.195 21.8027 117.004 14.8132 114.459 6.49831C113.863 4.54907 112.393 2.38821 111.396 0.823242C117.205 1.48042 121.421 5.8857 123.52 12.7192C126.182 21.4797 121.922 29.2544 115.367 32.0724Z"
              fill="#54BD5E"/>
        <path id="Vector_7"
              d="M90.6617 23.5573C91.4581 16.7906 98.0522 14.3402 103.866 15.9441C102.863 16.6743 102.049 17.6333 101.491 18.7414C100.933 19.8495 100.648 21.0747 100.659 22.3154C100.581 26.832 104.791 33.5987 113.262 35.5591C115.244 36.0158 117.856 35.8208 119.705 35.7429C116.236 40.4433 110.305 41.9025 103.343 40.293C94.4377 38.2323 89.8207 30.6414 90.6617 23.5573Z"
              fill="#FFC229"/>
    </g>
</svg>
