<svg viewBox="225 10 135 95" fill="none" xmlns="http://www.w3.org/2000/svg">
    <path d="M323.456 19.5499C303.885 45.047 288.744 73.6482 267.282 77.0403C249.388 79.8691 234.646 61.5673 249.271 38.0605L251.125 37.6206C240.693 55.6471 251.002 69.4335 265.098 65.3074C282.384 60.2478 294.019 42.1834 309.619 23.0052L323.456 19.5467V19.5499ZM292.276 27.3338C282.21 39.4939 273.673 50.9862 264.231 53.1695C255.163 55.4636 250.632 47.3727 257.052 36.1461L255.83 36.4467C246.265 51.8849 253.745 63.8266 265.598 60.4124C279.049 56.5362 290.798 40.7057 303.467 24.5462L292.276 27.3338ZM329.471 18.0469L303.989 52.8405C295.766 63.4374 288.222 71.8415 280.644 76.4296C267.089 84.6343 253.881 83.2231 246.293 76.0214C236.76 66.9718 236.276 53.9479 244.215 39.3515L241.949 39.9179C220.031 75.4075 250.464 106.091 282.109 95.9305C294.794 91.8582 301.148 86.517 314.843 67.9685C323.702 55.9698 350 13 350 13L329.471 18.0469ZM268.05 47.1481C271.199 43.1707 278.41 30.7796 278.41 30.7796L269.079 33.1401C269.079 33.1401 264.769 46.414 264.665 46.7652C264.314 47.8347 266.051 49.6731 268.05 47.1512V47.1481Z"
          fill="#320F5B"/>
</svg>
