<svg preserveAspectRatio="xMidYMid meet" data-bbox="0.416 0 18.68 32.002" xmlns="http://www.w3.org/2000/svg"
     viewBox="0.416 0 18.68 32.002" height="32" width="20" data-type="color" role="img"
     aria-label="לוגו מגדל – מעבר לעמוד הבית">
    <g>
        <path fill="#020140" d="M4.078 26.906.416 32.002h18.68l-3.656-5.096z" data-color="1"></path>
        <path fill="#020140" d="M4.39 20.957v5.1h4.372v-2.525a.92.92 0 0 1 1.84 0v2.525h4.381v-5.1z"
              data-color="1"></path>
        <path fill="#020140"
              d="M15.349 14.941v.981h-1.227v-.98h-2.093v.98h-1.227v-.98H8.71v.98H7.482v-.98H5.395v.98H4.163v-.98h-2.39l2.666 5.095h10.638l2.666-5.096z"
              data-color="1"></path>
        <path fill="#020140" d="M15.035 8.965H4.447l1.102 2.097v2.998h8.39v-2.998z" data-color="1"></path>
        <path fill="#020140" d="M13.373 2.984H6.115v5.1h7.258z" data-color="1"></path>
        <path fill="#020140"
              d="M13.679 0v.98h-1.232V0h-2.088v.98H9.132V0H7.04v.98H5.812V0H3.715L4.81 2.097h9.869L15.776 0z"
              data-color="1"></path>
    </g>
</svg>
