<svg width="41" height="48" viewBox="0 0 41 48" fill="none" xmlns="http://www.w3.org/2000/svg">
    <path d="M38.3067 4.26667C34.9235 1.77778 27.6227 0 20.5 0C13.3773 0 6.07655 1.77778 2.69327 4.26667C0.734528 5.68889 -0.155809 7.46667 0.0222584 9.6C0.0222584 16 5.00814 32.5333 13.7334 44.4444C15.336 46.7556 17.829 47.8222 20.5 48C23.171 48 25.842 46.7556 27.2666 44.4444C36.1699 32.3556 40.9777 15.8222 40.9777 9.6C41.1558 7.46667 40.2655 5.68889 38.3067 4.26667Z"
          fill="#E10514"/>
    <path d="M14.2679 22.2221C14.2679 22.2221 12.4872 17.7776 11.4188 13.1554C11.4188 12.7998 11.5969 12.4443 11.953 12.2665C13.9117 11.7332 17.6511 11.1998 19.6099 11.1998C24.7738 11.1998 28.6913 12.2665 28.6913 15.8221C28.6913 19.0221 24.5958 21.5109 14.2679 22.2221ZM34.2114 15.1109C34.0333 9.95539 30.1159 5.68872 19.788 5.68872C15.3363 5.68872 10.7065 6.57761 7.50131 7.99983C7.14518 8.17761 6.78904 8.35539 6.43291 8.53317C5.72064 9.0665 5.3645 9.59983 5.3645 10.6665C5.3645 10.8443 6.43291 24.1776 17.4731 40.7109C18.1853 41.5998 18.8976 42.8443 20.1441 42.8443C20.5002 42.8443 20.8564 42.8443 21.3906 42.4887C21.9248 42.3109 22.8151 41.5998 22.9932 40.5332C23.1712 39.8221 22.9932 39.1109 22.637 38.5776C19.0757 33.0665 16.4047 27.3776 16.4047 27.3776C16.4047 27.3776 34.5675 26.4887 34.2114 15.1109Z"
          fill="white"/>
</svg>
